<?xml version="1.0" encoding="iso-8859-1"?>
<!-- Generator: Adobe Illustrator 24.0.3, SVG Export Plug-In . SVG Version: 6.00 Build 0)  -->
<svg version="1.1" xmlns="http://www.w3.org/2000/svg" xmlns:xlink="http://www.w3.org/1999/xlink" x="0px" y="0px"
	 viewBox="0 0 64 64" style="enable-background:new 0 0 64 64;" xml:space="preserve">
<g id="time-management">
	<path style="fill:#ABD8C7;" d="M20.73,15.102c-10.453,0-18.956,8.503-18.956,18.956c0,10.448,8.503,18.952,18.956,18.952
		c10.448,0,18.952-8.503,18.952-18.952C39.682,23.605,31.179,15.102,20.73,15.102z M5.574,34.943H3.128v-1.774h2.446V34.943z
		 M19.841,16.456h1.774v2.446h-1.774V16.456z M8.909,47.129l-1.255-1.255l1.729-1.729l1.255,1.255L8.909,47.129z M9.383,23.966
		l-1.729-1.729l1.255-1.255l1.729,1.729L9.383,23.966z M21.615,51.656h-1.774v-2.442h1.774V51.656z M28.335,34.943h-4.911
		c-0.375,1.137-1.435,1.963-2.694,1.963c-1.575,0-2.852-1.277-2.852-2.848c0-1.264,0.826-2.32,1.963-2.699V21.61h1.774v9.749
		c0.858,0.284,1.526,0.952,1.81,1.81h4.911V34.943z M32.546,47.129L30.817,45.4l1.255-1.255l1.729,1.729L32.546,47.129z
		 M32.072,23.966l-1.255-1.255l1.729-1.729l1.255,1.255L32.072,23.966z M35.886,34.943v-1.774h2.442v1.774H35.886z"/>
	<path style="fill:#9AC1B1;" d="M19.825,14.361c-0.379,0-0.755,0.013-1.128,0.034c10.352,0.585,18.567,9.162,18.567,19.661
		s-8.215,19.076-18.567,19.661c0.374,0.021,0.749,0.034,1.128,0.034c10.877,0,19.695-8.818,19.695-19.695
		S30.703,14.361,19.825,14.361z"/>
	<path style="fill:#47705D;" d="M23.425,33.169c-0.284-0.858-0.952-1.526-1.81-1.81V21.61h-1.774v9.749
		c-1.137,0.379-1.963,1.435-1.963,2.699c0,1.571,1.277,2.848,2.852,2.848c1.259,0,2.32-0.826,2.694-1.963h4.911v-1.774H23.425z
		 M20.73,35.132c-0.596,0-1.079-0.483-1.079-1.074c0-0.596,0.483-1.079,1.079-1.079c0.591,0,1.074,0.483,1.074,1.079
		C21.804,34.649,21.321,35.132,20.73,35.132z M32.072,44.146L30.817,45.4l1.729,1.729l1.255-1.255L32.072,44.146z M8.909,20.983
		l-1.255,1.255l1.729,1.729l1.255-1.255L8.909,20.983z M9.383,44.146l-1.729,1.729l1.255,1.255l1.729-1.729L9.383,44.146z
		 M32.546,20.983l-1.729,1.729l1.255,1.255l1.729-1.729L32.546,20.983z M19.841,49.214v2.442h1.774v-2.442H19.841z M35.886,33.169
		v1.774h2.442v-1.774H35.886z M3.128,33.169v1.774h2.446v-1.774H3.128z M19.841,16.456v2.446h1.774v-2.446H19.841z M35.886,33.169
		v1.774h2.442v-1.774H35.886z M30.817,22.711l1.255,1.255l1.729-1.729l-1.255-1.255L30.817,22.711z M30.817,45.4l1.729,1.729
		l1.255-1.255l-1.729-1.729L30.817,45.4z M21.615,31.359V21.61h-1.774v9.749c-1.137,0.379-1.963,1.435-1.963,2.699
		c0,1.571,1.277,2.848,2.852,2.848c1.259,0,2.32-0.826,2.694-1.963h4.911v-1.774h-4.911C23.14,32.311,22.472,31.643,21.615,31.359z
		 M20.73,35.132c-0.596,0-1.079-0.483-1.079-1.074c0-0.596,0.483-1.079,1.079-1.079c0.591,0,1.074,0.483,1.074,1.079
		C21.804,34.649,21.321,35.132,20.73,35.132z M19.841,51.656h1.774v-2.442h-1.774V51.656z M21.615,16.456h-1.774v2.446h1.774V16.456
		z M7.655,22.238l1.729,1.729l1.255-1.255l-1.729-1.729L7.655,22.238z M7.655,45.874l1.255,1.255l1.729-1.729l-1.255-1.255
		L7.655,45.874z M3.128,34.943h2.446v-1.774H3.128V34.943z M35.886,33.169v1.774h2.442v-1.774H35.886z M20.73,13.328
		C9.298,13.328,0,22.626,0,34.058c0,11.428,9.298,20.726,20.73,20.726c11.428,0,20.726-9.298,20.726-20.726
		C41.456,22.626,32.158,13.328,20.73,13.328z M20.73,53.01c-10.453,0-18.956-8.503-18.956-18.952
		c0-10.453,8.503-18.956,18.956-18.956c10.448,0,18.952,8.503,18.952,18.956C39.682,44.507,31.179,53.01,20.73,53.01z
		 M30.817,22.711l1.255,1.255l1.729-1.729l-1.255-1.255L30.817,22.711z M30.817,45.4l1.729,1.729l1.255-1.255l-1.729-1.729
		L30.817,45.4z M21.615,31.359V21.61h-1.774v9.749c-1.137,0.379-1.963,1.435-1.963,2.699c0,1.571,1.277,2.848,2.852,2.848
		c1.259,0,2.32-0.826,2.694-1.963h4.911v-1.774h-4.911C23.14,32.311,22.472,31.643,21.615,31.359z M20.73,35.132
		c-0.596,0-1.079-0.483-1.079-1.074c0-0.596,0.483-1.079,1.079-1.079c0.591,0,1.074,0.483,1.074,1.079
		C21.804,34.649,21.321,35.132,20.73,35.132z M19.841,51.656h1.774v-2.442h-1.774V51.656z M21.615,16.456h-1.774v2.446h1.774V16.456
		z M7.655,22.238l1.729,1.729l1.255-1.255l-1.729-1.729L7.655,22.238z M7.655,45.874l1.255,1.255l1.729-1.729l-1.255-1.255
		L7.655,45.874z M3.128,34.943h2.446v-1.774H3.128V34.943z M63.111,3.927H20.73c-0.492,0-0.889,0.397-0.889,0.889v6.666h1.774V5.7
		h40.607v52.595H21.615V56.63h-1.774v2.555c0,0.492,0.397,0.889,0.889,0.889h42.381c0.492,0,0.889-0.397,0.889-0.889V4.816
		C64,4.324,63.603,3.927,63.111,3.927z M43.347,27.997c0.158,0.582,0.289,1.178,0.402,1.774h12.376v-1.774H43.347z M40.499,21.515
		c0.366,0.578,0.709,1.169,1.025,1.778h14.601v-1.778H40.499z M34.379,15.039c0.767,0.546,1.498,1.137,2.189,1.774h19.557v-1.774
		H34.379z M43.107,40.959c-0.185,0.6-0.397,1.192-0.632,1.774h13.649v-1.774H43.107z M39.939,47.436
		c-0.429,0.614-0.885,1.21-1.368,1.778h17.553v-1.778H39.939z M44.132,34.478c-0.009,0.596-0.041,1.187-0.095,1.774h12.087v-1.774
		H44.132z"/>
</g>
<g id="Layer_1">
</g>
</svg>
